<svg xmlns="http://www.w3.org/2000/svg" viewBox="0 0 512 512"><title>Artboard 109</title><g id="Notre_Dame" data-name="Notre Dame"><polygon points="213.333 234.667 256 64 298.667 234.667 213.333 234.667" style="fill:#555754"/><path d="M192,170.66667v320H320v-320Zm42.66667,64H213.33333V192h21.33334Zm64,0H277.33333V192h21.33334Z" style="fill:#d6a436"/><rect x="42.66667" y="42.66667" width="149.33333" height="448" style="fill:#d6a436"/><rect x="21.33333" y="192" width="42.66667" height="298.66667" style="fill:#b37900"/><rect x="448" y="192" width="42.66667" height="298.66667" style="fill:#b37900"/><rect x="21.33333" y="405.33333" width="469.33333" height="21.33333" style="fill:#cb8c01"/><rect x="21.33333" y="192" width="170.66667" height="21.33333" style="fill:#cb8c01"/><rect x="320" y="191.99993" width="170.66667" height="21.33333" style="fill:#cb8c01"/><rect x="21.33333" y="256" width="469.33333" height="21.33333" style="fill:#cb8c01"/><rect x="21.33333" y="426.66667" width="469.33333" height="21.33333" style="fill:#9e6611"/><rect x="21.33333" y="277.33333" width="469.33333" height="21.33333" style="fill:#9e6611"/><rect x="320" y="42.66667" width="149.33333" height="448" style="fill:#d6a436"/><rect x="405.33333" y="42.66667" width="64" height="448" style="fill:#cb8c01"/><rect x="192" y="256" width="128" height="128" style="fill:#cb8c01"/><rect x="192" y="362.66667" width="21.33333" height="21.33333" style="fill:#d6a436"/><rect x="298.66667" y="277.33333" width="21.33333" height="21.33333" style="fill:#d6a436"/><rect x="192" y="256" width="128" height="21.33333" style="fill:#9e6611"/><rect x="298.66667" y="256" width="21.33333" height="128" style="fill:#935d00"/><rect x="42.66667" y="384" width="426.66667" height="106.66667" style="fill:#cb8c01"/><rect x="42.66667" y="405.33333" width="426.66667" height="21.33333" style="fill:#b37900"/><path d="M106.66662,405.33333h.00009A42.66662,42.66662,0,0,1,149.33333,448v42.66671a0,0,0,0,1,0,0H64a0,0,0,0,1,0,0V448A42.66662,42.66662,0,0,1,106.66662,405.33333Z" style="fill:#824400"/><path d="M85.33333,490.66667H64V448a42.71555,42.71555,0,0,1,42.66667-42.66667v21.33334A21.35443,21.35443,0,0,0,85.33333,448Z" style="fill:#723603"/><path d="M256,405.33333H256A42.66662,42.66662,0,0,1,298.66667,448v42.66671a0,0,0,0,1,0,0H213.33333a0,0,0,0,1,0,0V448A42.66662,42.66662,0,0,1,256,405.33333Z" style="fill:#824400"/><path d="M234.66667,490.66667H213.33333V448A42.71556,42.71556,0,0,1,256,405.33333v21.33334A21.35442,21.35442,0,0,0,234.66667,448Z" style="fill:#723603"/><path d="M384,405.33333H384A42.66662,42.66662,0,0,1,426.66667,448v42.66671a0,0,0,0,1,0,0H341.33333a0,0,0,0,1,0,0V448A42.66662,42.66662,0,0,1,384,405.33333Z" style="fill:#824400"/><path d="M362.66667,490.66667H341.33333V448A42.71556,42.71556,0,0,1,384,405.33333v21.33334A21.35442,21.35442,0,0,0,362.66667,448Z" style="fill:#723603"/><circle cx="256" cy="320" r="64" style="fill:#b37900"/><path d="M298.66667,272.60938v94.78124a63.30427,63.30427,0,0,0,0-94.78124Z" style="fill:#9e6611"/><circle cx="256" cy="320" r="21.33333" style="fill:#ccd4da"/><circle cx="256" cy="320" r="42.66667" style="fill:#ccd4da"/><rect x="42.66667" y="256" width="149.33333" height="128" style="fill:#d6a436"/><rect x="320" y="256" width="149.33333" height="128" style="fill:#d6a436"/><rect x="42.66667" y="256" width="128" height="21.33333" style="fill:#b37900"/><rect x="149.33333" y="256" width="21.33333" height="128" style="fill:#885400"/><rect x="341.33333" y="256" width="128" height="21.33333" style="fill:#b37900"/><path d="M394.66661,256h.00011A53.33328,53.33328,0,0,1,448,309.33328V384a0,0,0,0,1,0,0H341.33333a0,0,0,0,1,0,0V309.33328A53.33328,53.33328,0,0,1,394.66661,256Z" style="fill:#824400"/><path d="M117.33328,256h.00011a53.33328,53.33328,0,0,1,53.33328,53.33328V384a0,0,0,0,1,0,0H64a0,0,0,0,1,0,0V309.33328A53.33328,53.33328,0,0,1,117.33328,256Z" style="fill:#824400"/><path d="M149.33333,266.90755V384h21.33334V309.33333A53.07711,53.07711,0,0,0,149.33333,266.90755Z" style="fill:#723603"/><rect x="426.66667" y="256" width="21.33333" height="128" style="fill:#885400"/><path d="M426.66667,266.90755V384H448V309.33333A53.07711,53.07711,0,0,0,426.66667,266.90755Z" style="fill:#723603"/><path d="M85.33331,298.66667h0A21.33331,21.33331,0,0,1,106.66667,320v64a0,0,0,0,1,0,0H64a0,0,0,0,1,0,0V320a21.33331,21.33331,0,0,1,21.33331-21.33331Z" style="fill:#3d3f3c"/><path d="M149.33331,298.66667h0A21.33331,21.33331,0,0,1,170.66667,320v64a0,0,0,0,1,0,0H128a0,0,0,0,1,0,0V320a21.33331,21.33331,0,0,1,21.33331-21.33331Z" style="fill:#3d3f3c"/><path d="M149.33333,298.66667V384h21.33334V320A21.33272,21.33272,0,0,0,149.33333,298.66667Z" style="fill:#2c2e2b"/><rect x="42.66667" y="170.66667" width="149.33333" height="85.33333" style="fill:#d6a436"/><rect x="42.66667" y="192" width="128" height="21.33333" style="fill:#cb8c01"/><rect x="234.66667" y="192" width="42.66667" height="21.33333" style="fill:#935d00"/><rect x="298.66667" y="192" width="21.33333" height="21.33333" style="fill:#cb8c01"/><rect x="192" y="192" width="21.33333" height="21.33333" style="fill:#935d00"/><rect x="64" y="21.33333" width="106.66667" height="21.33333" style="fill:#e0bb69"/><rect x="341.33333" y="21.33333" width="106.66667" height="21.33333" style="fill:#e0bb69"/><rect x="384" y="21.33333" width="64" height="21.33333" style="fill:#d6a436"/><rect x="320" y="170.66667" width="149.33333" height="85.33333" style="fill:#d6a436"/><rect x="341.33333" y="192" width="106.66667" height="21.33333" style="fill:#cb8c01"/><path d="M362.66665,298.66667h0A21.33331,21.33331,0,0,1,384,320v64a0,0,0,0,1,0,0H341.33333a0,0,0,0,1,0,0V320A21.33331,21.33331,0,0,1,362.66665,298.66667Z" style="fill:#3d3f3c"/><path d="M426.66665,298.66667h0A21.33331,21.33331,0,0,1,448,320v64a0,0,0,0,1,0,0H405.33333a0,0,0,0,1,0,0V320a21.33331,21.33331,0,0,1,21.33331-21.33331Z" style="fill:#2c2e2b"/><rect x="64" y="192" width="21.33333" height="42.66667" style="fill:#2c2e2b"/><rect x="106.66667" y="192" width="21.33333" height="42.66667" style="fill:#2c2e2b"/><rect x="149.33333" y="192" width="21.33333" height="42.66667" style="fill:#2c2e2b"/><rect x="341.33333" y="192" width="21.33333" height="42.66667" style="fill:#2c2e2b"/><rect x="384" y="192" width="21.33333" height="42.66667" style="fill:#2c2e2b"/><rect x="426.66667" y="192" width="21.33333" height="42.66667" style="fill:#2c2e2b"/><path d="M85.33331,64h0a21.33331,21.33331,0,0,1,21.33331,21.33331v85.33335a0,0,0,0,1,0,0H64a0,0,0,0,1,0,0V85.33331A21.33331,21.33331,0,0,1,85.33331,64Z" style="fill:#3d3f3c"/><path d="M149.33331,64h0a21.33331,21.33331,0,0,1,21.33331,21.33331v85.33335a0,0,0,0,1,0,0H128a0,0,0,0,1,0,0V85.33331A21.33331,21.33331,0,0,1,149.33331,64Z" style="fill:#3d3f3c"/><path d="M362.66665,64h0A21.33331,21.33331,0,0,1,384,85.33331v85.33335a0,0,0,0,1,0,0H341.33333a0,0,0,0,1,0,0V85.33331A21.33331,21.33331,0,0,1,362.66665,64Z" style="fill:#3d3f3c"/><path d="M426.66665,64h0A21.33331,21.33331,0,0,1,448,85.33331v85.33335a0,0,0,0,1,0,0H405.33333a0,0,0,0,1,0,0V85.33331A21.33331,21.33331,0,0,1,426.66665,64Z" style="fill:#2c2e2b"/><rect x="224.00114" y="283.58172" width="21.33105" height="30.16989" transform="translate(-142.45695 253.41183) rotate(-45)" style="fill:#2c2e2b"/><rect x="262.24839" y="288.00114" width="30.16989" height="21.33105" transform="translate(-129.96017 283.58172) rotate(-45)" style="fill:#2c2e2b"/><rect x="266.66781" y="326.24839" width="21.33105" height="30.16989" transform="translate(-160.13006 296.0785) rotate(-45)" style="fill:#2c2e2b"/><rect x="219.58172" y="330.66781" width="30.16989" height="21.33105" transform="translate(-172.62684 265.90861) rotate(-45)" style="fill:#2c2e2b"/><rect x="149.33333" y="405.33333" width="21.33333" height="85.33333" style="fill:#935d00"/><rect x="298.66667" y="405.33333" width="21.33333" height="85.33333" style="fill:#935d00"/><rect x="298.66667" y="192" width="21.33333" height="42.66667" style="fill:#935d00"/><rect x="426.66667" y="405.33333" width="21.33333" height="85.33333" style="fill:#885400"/><rect x="170.66667" y="405.33333" width="21.33333" height="85.33333" style="fill:#d6a436"/><rect x="320" y="405.33333" width="21.33333" height="85.33333" style="fill:#d6a436"/><rect x="320" y="256" width="21.33333" height="128" style="fill:#e0bb69"/><rect x="320" y="256" width="21.33333" height="21.33333" style="fill:#d6a436"/><rect x="42.66667" y="256" width="21.33333" height="128" style="fill:#e9cf95"/><rect x="42.66667" y="405.33333" width="21.33333" height="85.33333" style="fill:#e9cf95"/><rect x="448" y="384" width="21.33333" height="106.66667" style="fill:#e0bb69"/><rect x="170.66667" y="256" width="21.33333" height="21.33333" style="fill:#d6a436"/><rect x="42.66667" y="256" width="21.33333" height="21.33333" style="fill:#d6a436"/><rect x="170.66667" y="405.33333" width="21.33333" height="21.33333" style="fill:#cb8c01"/><rect x="448" y="405.33333" width="21.33333" height="21.33333" style="fill:#d6a436"/><rect x="42.66667" y="405.33333" width="21.33333" height="21.33333" style="fill:#d6a436"/><rect x="320" y="405.33333" width="21.33333" height="21.33333" style="fill:#cb8c01"/><rect x="64" y="320" width="21.33333" height="64" style="fill:#242623"/><rect x="64" y="85.33333" width="21.33333" height="85.33333" style="fill:#242623"/><rect x="128" y="85.33333" width="21.33333" height="85.33333" style="fill:#242623"/><rect x="341.33333" y="85.33333" width="21.33333" height="85.33333" style="fill:#242623"/><rect x="405.33333" y="85.33333" width="21.33333" height="85.33333" style="fill:#242623"/><rect x="128" y="320" width="21.33333" height="64" style="fill:#242623"/><rect x="341.33333" y="320" width="21.33333" height="64" style="fill:#242623"/><rect x="405.33333" y="320" width="21.33333" height="64" style="fill:#242623"/><rect x="448" y="192" width="21.33333" height="42.66667" style="fill:#e0bb69"/><rect x="320" y="192" width="21.33333" height="42.66667" style="fill:#e0bb69"/><rect x="42.66667" y="192" width="21.33333" height="42.66667" style="fill:#e9cf95"/><rect x="448" y="192" width="21.33333" height="21.33333" style="fill:#d6a436"/><rect x="320" y="192" width="21.33333" height="21.33333" style="fill:#d6a436"/><rect x="170.66667" y="192" width="21.33333" height="21.33333" style="fill:#cb8c01"/><rect x="42.66667" y="192" width="21.33333" height="21.33333" style="fill:#d6a436"/><rect x="256" y="149.33333" width="21.33333" height="21.33333" style="fill:#3d3f3c"/><polygon points="256 128 240 128 234.667 149.333 256 149.333 256 128" style="fill:#3d3f3c"/><polygon points="218.667 213.333 213.333 234.667 234.667 234.667 234.667 213.333 218.667 213.333" style="fill:#3d3f3c"/><polygon points="288 192 277.333 192 277.333 213.333 293.333 213.333 288 192" style="fill:#3d3f3c"/><rect x="42.66667" y="64" width="21.33333" height="21.33333" style="fill:#e0bb69"/><rect x="42.66667" y="106.66667" width="21.33333" height="21.33333" style="fill:#e0bb69"/><rect x="106.66667" y="149.33333" width="21.33333" height="21.33333" style="fill:#e0bb69"/><rect x="170.66667" y="106.66667" width="21.33333" height="21.33333" style="fill:#e0bb69"/><rect x="170.66667" y="64" width="21.33333" height="21.33333" style="fill:#e0bb69"/><rect x="320" y="64" width="21.33333" height="21.33333" style="fill:#e0bb69"/><rect x="384" y="128" width="21.33333" height="21.33333" style="fill:#e0bb69"/><rect x="320" y="128" width="21.33333" height="21.33333" style="fill:#e0bb69"/><rect x="384" y="85.33333" width="21.33333" height="21.33333" style="fill:#e0bb69"/><rect x="448" y="64" width="21.33333" height="21.33333" style="fill:#d6a436"/><rect x="448" y="128" width="21.33333" height="21.33333" style="fill:#d6a436"/><rect x="128" y="42.66667" width="21.33333" height="21.33333" style="fill:#e0bb69"/><rect x="106.66667" y="85.33333" width="21.33333" height="21.33333" style="fill:#e0bb69"/><rect x="192" y="469.33333" width="21.33333" height="21.33333" style="fill:#d6a436"/><rect x="469.33333" y="320" width="21.33333" height="21.33333" style="fill:#d6a436"/></g></svg>